<?xml version="1.0" standalone="no"?>
<!DOCTYPE svg PUBLIC "-//W3C//DTD SVG 20010904//EN"
 "http://www.w3.org/TR/2001/REC-SVG-20010904/DTD/svg10.dtd">
<svg version="1.0" xmlns="http://www.w3.org/2000/svg"
 width="512.000000pt" height="512.000000pt" viewBox="0 0 512.000000 512.000000"
 preserveAspectRatio="xMidYMid meet">
<metadata>
Created by potrace 1.14, written by Peter Selinger 2001-2017
</metadata>
<g transform="translate(0.000000,512.000000) scale(0.100000,-0.100000)"
fill="#000000" stroke="none">
<path d="M1138 5091 l-32 -29 -2 -193 -2 -194 -66 -240 c-37 -132 -87 -312
-112 -400 -25 -88 -47 -167 -49 -175 -2 -8 -8 -37 -14 -64 -59 -257 -2 -551
149 -771 94 -137 271 -280 425 -344 142 -59 235 -76 410 -75 185 2 353 53 515
158 101 65 122 75 179 79 64 5 128 -16 206 -69 116 -79 279 -143 410 -161 65
-9 228 -10 285 -1 97 16 118 21 194 49 184 67 340 183 456 339 63 84 133 225
155 310 28 106 40 190 38 284 -2 139 -2 137 -173 751 l-92 330 -2 192 c-2 187
-3 193 -26 218 -29 31 -83 42 -117 24 -51 -28 -56 -46 -57 -237 l-2 -177 -61
-90 c-182 -265 -440 -535 -699 -732 -158 -120 -454 -303 -490 -303 -41 0 -334
178 -497 302 -263 201 -517 467 -700 733 l-61 90 -1 175 c-1 190 -6 210 -55
235 -43 22 -76 18 -112 -14z m167 -741 c26 -36 53 -69 59 -75 6 -5 29 -32 50
-60 137 -175 560 -546 735 -644 7 -5 33 -84 57 -177 l44 -169 -42 -172 -43
-173 -50 -20 c-259 -103 -548 -65 -770 103 -192 146 -308 377 -308 617 -1 84
13 160 54 307 158 572 150 546 159 536 4 -4 28 -37 55 -73z m2590 23 c8 -32
22 -80 30 -108 39 -136 136 -495 140 -516 29 -168 26 -252 -17 -394 -73 -241
-267 -438 -508 -514 -94 -29 -114 -33 -225 -36 -112 -3 -198 12 -296 50 l-65
25 -23 98 c-22 94 -27 113 -51 197 -11 36 -7 58 32 212 l44 172 66 45 c62 41
227 163 238 175 3 3 28 24 55 46 58 45 332 318 388 385 81 98 148 183 158 201
5 11 11 19 14 19 2 0 11 -26 20 -57z m-1415 -993 c33 -16 69 -30 80 -30 11 0
48 14 81 31 34 17 63 28 66 26 2 -3 -6 -40 -17 -83 -26 -94 -26 -117 0 -212
22 -80 24 -96 12 -88 -34 21 -163 26 -231 10 -31 -7 -57 -11 -59 -9 -2 2 6 40
17 84 26 98 26 127 1 216 -21 76 -23 85 -15 85 3 0 32 -13 65 -30z"/>
<path d="M893 2308 c-53 -14 -70 -51 -99 -213 -28 -156 -22 -260 17 -336 28
-57 124 -154 187 -193 32 -18 89 -45 128 -59 322 -115 660 -405 912 -784 88
-131 149 -251 240 -469 44 -106 86 -201 93 -212 22 -35 55 -42 194 -42 133 0
135 0 164 27 19 19 50 79 90 178 165 402 314 635 566 889 211 212 366 319 591
406 59 22 131 57 160 76 63 42 147 131 175 185 20 41 38 140 33 193 -9 115
-37 251 -61 304 -17 35 -55 59 -88 57 -19 -2 -124 -20 -175 -30 -34 -7 -223
-40 -400 -71 -80 -14 -156 -27 -170 -30 -14 -2 -40 -7 -59 -10 -18 -3 -43 -8
-55 -10 -11 -2 -37 -7 -56 -10 -19 -4 -44 -8 -55 -10 -265 -49 -444 -67 -650
-67 -181 0 -293 8 -510 38 -16 2 -187 32 -350 61 -138 25 -597 106 -625 110
-19 3 -64 12 -100 18 -41 8 -77 9 -97 4z m387 -258 c202 -36 285 -51 300 -55
3 0 30 -5 60 -9 30 -4 62 -9 70 -11 78 -15 366 -65 405 -70 28 -4 60 -8 73
-10 53 -9 245 -18 367 -18 210 0 398 16 577 48 9 2 38 7 65 11 26 5 50 9 53 9
3 1 28 5 55 10 28 4 59 9 70 11 20 4 150 28 215 39 19 3 85 15 145 26 61 10
124 22 140 25 17 2 68 12 115 20 47 8 95 17 107 19 18 4 23 -2 32 -43 7 -26
13 -76 14 -112 1 -53 -3 -73 -22 -103 -37 -60 -103 -106 -213 -149 -186 -72
-340 -164 -500 -298 -55 -46 -240 -229 -293 -290 -102 -117 -268 -359 -335
-490 -13 -25 -58 -126 -101 -225 l-78 -180 -42 0 -42 0 -63 150 c-140 332
-257 520 -480 775 -236 270 -484 452 -758 556 -110 42 -152 69 -200 127 -41
50 -47 82 -34 185 5 37 10 75 10 85 2 13 9 16 33 12 16 -3 131 -23 255 -45z"/>
</g>
</svg>
